<?xml version="1.0" encoding="utf-8"?>
<!-- Generator: Adobe Illustrator 16.0.0, SVG Export Plug-In . SVG Version: 6.00 Build 0)  -->
<!DOCTYPE svg PUBLIC "-//W3C//DTD SVG 1.1//EN" "http://www.w3.org/Graphics/SVG/1.1/DTD/svg11.dtd">
<svg version="1.1" id="doctor_M" xmlns="http://www.w3.org/2000/svg" xmlns:xlink="http://www.w3.org/1999/xlink" x="0px" y="0px"
	 width="511.938px" height="511.938px" viewBox="-232.296 -226.614 511.938 511.938"
	 enable-background="new -232.296 -226.614 511.938 511.938" xml:space="preserve">
<g id="Groupe_61" transform="translate(0)">
	<path id="Tracé_274" fill="#FFFFFF" d="M131.368,94.285L74.571,81.656V63.698c22.793-16.34,36.321-42.655,36.344-70.694v-3.133
		c18.048-10.714,29.104-30.167,29.073-51.162v-66.672c-0.045-37.542-30.482-67.961-68.025-67.984H-19.71
		c-16.294-0.057-30.97,9.875-36.973,25.03l-1.754,4.381c-2.293,5.752-6.625,10.459-12.172,13.225
		c-13.536,6.712-22.073,20.54-22.021,35.65v56.393c-0.03,20.994,11.018,40.447,29.073,51.162v3.133
		c0.022,28.043,13.551,54.354,36.344,70.694v17.958L-84.01,94.301c-43.344,9.413-74.201,47.878-73.984,92.234v68.122h363.339
		v-68.145C205.563,142.156,174.712,103.699,131.368,94.285z M-63.556-80.054v52.034c-9.301-8.559-14.578-20.638-14.533-33.278
		v-56.363c-0.045-9.598,5.381-18.386,13.978-22.643c8.732-4.358,15.56-11.768,19.188-20.821l1.754-4.393
		c3.808-9.62,13.124-15.927,23.467-15.893h91.664c29.501,0.034,53.418,23.943,53.448,53.447v66.68
		c0.037,12.64-5.231,24.719-14.533,33.278v-52.049c-0.038-23.864-19.405-43.187-43.27-43.153
		c-20.566,0.026-38.262,14.544-42.31,34.71l-0.322,1.604h-2.623l-0.322-1.604c-4.677-23.403-27.432-38.584-50.839-33.911
		C-49-118.376-63.549-100.65-63.556-80.054z M-49.015-6.98v-73.073c-0.015-15.837,12.816-28.68,28.654-28.691
		c13.686-0.007,25.468,9.654,28.136,23.074l2.676,13.285h26.436l2.668-13.285c3.088-15.534,18.19-25.614,33.721-22.519
		c13.416,2.672,23.077,14.454,23.069,28.137v73.065c0,40.137-32.536,72.673-72.672,72.673C-16.464,65.685-49,33.148-49-6.988l0,0
		L-49.015-6.98z M-12.687,85.486V72.19c23.04,10.702,49.632,10.702,72.68,0v13.281l-36.344,60.574L-12.687,85.486z M15.817,161.246
		l-42.437-26.518l5.104-35.706L15.817,161.246z M68.829,99.022l5.104,35.699L31.49,161.239L68.829,99.022z M118.132,240.125H-70.789
		v-29.097h-14.585v29.081h-58.125v-53.597c-0.18-37.528,25.925-70.072,62.599-78.031l17.344-3.838v55.523h-21.818
		c-16.055,0.015-29.059,13.026-29.074,29.081v36.336h21.803v-14.556h-7.27v-21.795c0.03-8.021,6.521-14.511,14.541-14.533h58.139
		c8.012,0.022,14.51,6.513,14.533,14.533v21.811h-7.27v14.532H1.839v-36.343c-0.022-16.04-13.011-29.036-29.051-29.066h-21.803
		v-58.776l12.884-2.863l-6.221,43.486l66.009,41.261l66.001-41.261l-6.214-43.486l12.885,2.863v59.804
		c-15.53,3.882-24.974,19.622-21.092,35.159c3.891,15.529,19.63,24.966,35.16,21.083c2.721-0.682,5.328-1.746,7.734-3.185V240.125z
		 M103.599,174.715c8.027,0,14.533,6.514,14.533,14.533c0,8.034-6.506,14.54-14.533,14.54c-8.026,0-14.54-6.506-14.54-14.54l0,0
		c0.022-8.02,6.514-14.525,14.54-14.548V174.715z M190.812,240.125h-58.139v-29.097h-10.059
		c12.082-10.38,13.453-28.586,3.072-40.668c-3.882-4.512-9.061-7.72-14.824-9.166v-56.565l17.343,3.837
		c36.674,7.96,62.779,40.504,62.6,78.031L190.812,240.125z"/>
</g>
</svg>
